<svg width="20" height="21" viewBox="0 0 20 21" fill="none" xmlns="http://www.w3.org/2000/svg">
<g clip-path="url(#clip0_96_224)">
<path d="M0.273941 11.1306V9.88114C0.286054 9.81801 0.299033 9.75488 0.30855 9.69175C0.38036 9.21652 0.416702 8.7334 0.529174 8.26869C1.27669 5.17882 3.06673 2.91314 5.87423 1.50148C7.73349 0.566806 9.71388 0.296748 11.7574 0.649225C14.3166 1.08763 16.4034 2.36952 17.9763 4.45896C19.6202 6.64659 20.2569 9.13059 19.9074 11.8548C19.6618 13.8245 18.8225 15.6693 17.5039 17.1376C16.0389 18.8305 14.0449 19.9624 11.8552 20.3441C11.491 20.4116 11.1215 20.4493 10.7538 20.5002H9.52095C9.28043 20.4695 9.03905 20.4441 8.79939 20.4125C6.87307 20.1511 5.06856 19.3096 3.61958 17.9969C1.93515 16.5104 0.807928 14.4808 0.427945 12.2503C0.362192 11.8776 0.324986 11.5024 0.273941 11.1306ZM10.124 15.0473C11.7967 15.0473 13.4722 15.0473 15.1507 15.0473C15.9838 15.0473 16.4934 14.5291 16.4943 13.6856V7.32437C16.4943 6.48088 15.9838 5.96444 15.1489 5.96444H5.13451C4.28836 5.96444 3.78137 6.47913 3.78137 7.33577C3.78137 9.44011 3.79608 11.5506 3.77359 13.6576C3.76493 14.4248 4.29961 15.0683 5.15787 15.0552C6.81122 15.0289 8.46804 15.0473 10.124 15.0473Z" fill="white"/>
<path d="M10.124 15.0472C8.46808 15.0472 6.81126 15.0288 5.15531 15.0551C4.29965 15.0683 3.76498 14.4247 3.77103 13.6575C3.79353 11.5531 3.77795 9.44266 3.77882 7.33569C3.77882 6.47904 4.28581 5.96436 5.13195 5.96436H15.1464C15.9813 5.96436 16.4909 6.4808 16.4917 7.32429V13.6855C16.4917 14.529 15.9813 15.0463 15.1481 15.0472C13.4743 15.0484 11.7996 15.0484 10.124 15.0472ZM4.80233 7.52069V13.6382C4.80233 13.974 4.84817 14.0196 5.18213 14.0196H15.0815C15.4276 14.0196 15.4725 13.9775 15.4725 13.6303V7.52069C15.3497 7.61802 15.2658 7.68465 15.1827 7.75217L10.5229 11.5005C10.2452 11.7241 10.0323 11.7241 9.75978 11.5058L6.53355 8.90955L4.80233 7.52069ZM14.4707 7.00688H5.85351C5.8587 7.06387 5.89331 7.07965 5.92186 7.10333C7.28538 8.19817 8.64716 9.29477 10.0072 10.3931C10.1206 10.4852 10.1803 10.4598 10.2832 10.38C11.3416 9.5242 12.4017 8.67048 13.4636 7.8188L14.4707 7.00688Z" fill="white"/>
<path d="M4.80232 7.52051L6.53267 8.96023L9.75891 11.6468C10.0314 11.873 10.2443 11.8721 10.522 11.6406C12.0759 10.3488 13.6291 9.05638 15.1818 7.76338L15.4717 7.52402V13.837C15.4717 14.1965 15.4284 14.2395 15.0806 14.2395C11.7808 14.2395 8.48105 14.2395 5.18127 14.2395C4.84731 14.2395 4.80145 14.193 4.80145 13.8449V7.52051H4.80232Z" fill="black"/>
<path d="M14.4707 7.00488L13.4636 7.81681C12.4029 8.67024 11.3428 9.52395 10.2832 10.378C10.1846 10.4578 10.1206 10.4832 10.0072 10.3911C8.64889 9.29043 7.2871 8.19384 5.92185 7.10133C5.8933 7.07766 5.85869 7.06188 5.8535 7.00488H14.4707Z" fill="black"/>
</g>
<defs>
<clipPath id="clip0_96_224">
<rect width="19.726" height="20" fill="white" transform="translate(0.273987 0.5)"/>
</clipPath>
</defs>
</svg>
