<svg width="20" height="20" viewBox="0 0 20 20" fill="none" xmlns="http://www.w3.org/2000/svg">
<g clip-path="url(#clip0_96_193)">
<path d="M9.24516 0H10.4773C10.8071 0.0440933 11.1406 0.0772028 11.4667 0.132319C13.482 0.47588 15.3431 1.44328 16.7946 2.90179C18.2461 4.36029 19.2169 6.23842 19.5739 8.27853C19.6391 8.64598 19.6753 9.01342 19.7261 9.38087V10.6301C19.6971 10.869 19.6717 11.1079 19.6391 11.3431C19.3724 13.4735 18.415 15.4536 16.9174 16.9722C14.3805 19.5443 11.3326 20.4814 7.82812 19.7796C5.5047 19.3257 3.43472 18.0022 2.02955 16.072C1.00235 14.7081 0.338696 13.0992 0.102424 11.3999C-0.133848 9.70068 0.0651953 7.96837 0.680459 6.36972C1.29572 4.77108 2.3065 3.35995 3.61545 2.27204C4.9244 1.18413 6.48749 0.456033 8.1543 0.157976C8.52033 0.106534 8.88637 0.0514422 9.24516 0ZM10.6948 8.3006V7.56571C10.6948 6.56259 10.6948 6.54788 11.6914 6.54788H12.467V4.57834C12.4465 4.57604 12.4258 4.57604 12.4054 4.57834C11.6805 4.57834 10.9775 4.5453 10.2671 4.60777C9.86139 4.62545 9.47135 4.77186 9.15208 5.02635C8.83281 5.28083 8.60042 5.63056 8.48769 6.02614C8.39 6.37449 8.33404 6.73346 8.32099 7.09537C8.29562 7.49589 8.32099 7.90011 8.32099 8.32635H7.20841V10.384H8.32825V16.1602H10.7093V10.3656H12.3111L12.5141 8.32267L10.6948 8.3006Z" fill="white"/>
<path d="M10.7092 8.30053H12.5213L12.3184 10.3435H10.7165V16.1381H8.33546V10.3618H7.21558V8.30421H8.3282C8.3282 7.87797 8.31008 7.47375 8.3282 7.07323C8.34125 6.71132 8.39721 6.35235 8.4949 6.004C8.60763 5.60842 8.84002 5.25869 9.15929 5.00421C9.47856 4.74972 9.8686 4.60331 10.2743 4.58563C10.9992 4.52316 11.6986 4.55997 12.4126 4.55629C12.4331 4.55399 12.4537 4.55399 12.4742 4.55629V6.52574H11.6986C10.7201 6.52574 10.702 6.52575 10.702 7.54357L10.7092 8.30053Z" fill="#2F383B"/>
</g>
<defs>
<clipPath id="clip0_96_193">
<rect width="19.726" height="20" fill="white"/>
</clipPath>
</defs>
</svg>
