<svg width="20" height="20" viewBox="0 0 20 20" fill="none" xmlns="http://www.w3.org/2000/svg">
<g clip-path="url(#clip0_96_203)">
<path d="M10.0378 20C4.58936 20 0.171661 15.5099 0.177985 9.98185C0.184309 4.46873 4.61149 -0.00800251 10.0531 1.07409e-05C15.4947 0.00802399 19.9077 4.48743 19.904 10.007C19.9003 15.5265 15.4795 20.0016 10.0378 20ZM16.1155 10.0102H16.1334C16.1334 9.26226 16.1382 8.51436 16.1308 7.77073C16.1325 7.47738 16.114 7.18427 16.0755 6.89354C15.8858 5.61409 15.2618 4.65998 14.0387 4.17598C13.5339 3.98128 12.9978 3.88328 12.4577 3.88697C10.9119 3.88127 9.36716 3.88127 7.82345 3.88697C7.49506 3.88592 7.16712 3.91146 6.84274 3.96336C5.60011 4.17331 4.67895 4.81811 4.21836 6.04414C4.03588 6.54538 3.94533 7.07621 3.95118 7.61046C3.95118 9.1629 3.94802 10.7159 3.95118 12.2688C3.94942 12.5548 3.9688 12.8405 4.00915 13.1236C4.19096 14.3106 4.75167 15.2321 5.86308 15.745C6.40564 15.9891 6.99325 16.1133 7.58684 16.1093C9.22365 16.1189 10.8603 16.1189 12.4967 16.1093C13.1323 16.105 13.7525 15.9843 14.327 15.6926C15.5063 15.0943 16.0259 14.0563 16.1045 12.7849C16.1614 11.8639 16.1155 10.9349 16.1155 10.0086V10.0102Z" fill="white"/>
<path d="M16.1156 10.0086C16.1156 10.9349 16.1615 11.8639 16.1046 12.7865C16.026 14.058 15.5064 15.0959 14.327 15.6943C13.7526 15.9859 13.1324 16.1067 12.4968 16.1109C10.8604 16.1223 9.22373 16.1223 7.58692 16.1109C6.99334 16.1149 6.40572 15.9907 5.86316 15.7466C4.75176 15.2338 4.19105 14.3122 4.00924 13.1252C3.96889 12.8422 3.94951 12.5564 3.95127 12.2705C3.946 10.7175 3.94811 9.16453 3.95127 7.6121C3.94535 7.07766 4.0359 6.54664 4.21845 6.04524C4.67903 4.81654 5.6002 4.17548 6.84282 3.96447C7.16646 3.91214 7.4937 3.88606 7.82143 3.88647C9.36725 3.87899 10.912 3.87899 12.4557 3.88647C12.9958 3.88278 13.5319 3.98077 14.0367 4.17548C15.2598 4.65948 15.8811 5.61359 16.0735 6.89304C16.1125 7.18321 16.1315 7.47577 16.1304 7.76862C16.1378 8.51652 16.133 9.26443 16.133 10.0081L16.1156 10.0086ZM10.0458 5.04038V5.02007C9.88773 5.02007 9.72964 5.02007 9.57154 5.02007C8.77 5.0377 7.96635 5.02382 7.16797 5.08472C6.24575 5.15523 5.56173 5.62374 5.25661 6.53725C5.14248 6.88402 5.08186 7.24657 5.0769 7.6121C5.05741 9.15171 5.06689 10.6919 5.07005 12.232C5.07084 12.4384 5.08298 12.6446 5.10641 12.8496C5.23921 14.0286 6.01757 14.8262 7.17798 14.9116C7.93684 14.9651 8.7015 14.9715 9.46351 14.9693C10.6134 14.9656 11.7654 14.9693 12.9126 14.9068C13.8359 14.8534 14.5199 14.3694 14.8235 13.457C14.9396 13.0967 15 12.7205 15.0026 12.3415C15.0221 10.8088 15.0126 9.27511 15.0095 7.74191C15.0089 7.52206 14.9952 7.30245 14.9684 7.08429C14.8451 6.07836 14.2195 5.36304 13.2515 5.13921C12.9886 5.07953 12.7203 5.04766 12.451 5.04412C11.6489 5.03503 10.8479 5.04251 10.0458 5.04251V5.04038Z" fill="white"/>
<path d="M10.0285 13.25C9.60541 13.2494 9.18667 13.1637 8.79652 12.9979C8.40636 12.832 8.05254 12.5894 7.75556 12.284C7.45857 11.9785 7.22433 11.6164 7.06639 11.2185C6.90846 10.8207 6.82997 10.395 6.83548 9.96616C6.83861 9.53736 6.92563 9.11345 7.09151 8.71899C7.25738 8.32453 7.49882 7.96734 7.80182 7.66813C8.10482 7.36892 8.46338 7.13362 8.85671 6.97587C9.25005 6.81811 9.67036 6.74104 10.0933 6.74911C10.9409 6.76135 11.749 7.11402 12.3403 7.72969C12.9317 8.34535 13.2578 9.17371 13.2473 10.0329C13.2409 10.8921 12.8982 11.7136 12.2947 12.3168C11.6911 12.92 10.876 13.2557 10.0285 13.25ZM10.068 7.90355C9.79632 7.89924 9.52649 7.94936 9.27397 8.05102C9.02146 8.15269 8.79123 8.30391 8.5965 8.49599C8.40178 8.68808 8.24639 8.91725 8.13925 9.17037C8.03212 9.42348 7.97534 9.69556 7.97218 9.97097C7.94741 11.1217 8.86067 12.0726 10.0121 12.0955C11.1509 12.1185 12.0826 11.1991 12.1074 10.0281C12.1119 9.75265 12.0627 9.47899 11.9625 9.22288C11.8623 8.96678 11.7132 8.73328 11.5236 8.53582C11.3341 8.33837 11.1079 8.18086 10.8581 8.07235C10.6083 7.96383 10.3398 7.90647 10.068 7.90355Z" fill="white"/>
<path d="M13.2773 7.41204C13.1936 7.41467 13.1102 7.40041 13.0319 7.37007C12.9536 7.33974 12.8821 7.29394 12.8215 7.23534C12.7608 7.17674 12.7122 7.1065 12.6786 7.02871C12.645 6.95092 12.6269 6.86713 12.6255 6.7822C12.6232 6.69582 12.6381 6.60985 12.6691 6.52938C12.7002 6.4489 12.7468 6.37555 12.8063 6.31366C12.8658 6.25176 12.9369 6.20257 13.0155 6.169C13.094 6.13542 13.1784 6.11814 13.2636 6.11817C13.4326 6.11731 13.595 6.18424 13.7155 6.30434C13.8359 6.42444 13.9046 6.58797 13.9066 6.75923C13.9084 6.93035 13.8432 7.0952 13.7252 7.2176C13.6072 7.34 13.4461 7.40993 13.2773 7.41204Z" fill="white"/>
<path d="M10.0459 5.04219C10.8479 5.04219 11.6505 5.03471 12.4521 5.04646C12.7214 5.05 12.9897 5.08187 13.2526 5.14155C14.2206 5.36539 14.8461 6.0807 14.9695 7.08663C14.9963 7.30479 15.01 7.5244 15.0106 7.74425C15.0137 9.27745 15.0232 10.8112 15.0037 12.3439C15.0011 12.7228 14.9407 13.0991 14.8245 13.4593C14.521 14.3717 13.837 14.8573 12.9137 14.9092C11.7665 14.9738 10.6145 14.9679 9.4646 14.9717C8.70258 14.9717 7.93635 14.9717 7.17907 14.914C6.01971 14.8285 5.2403 14.0309 5.1075 12.8519C5.08407 12.6469 5.07193 12.4407 5.07114 12.2343C5.06798 10.6942 5.05849 9.15405 5.07799 7.61444C5.08295 7.24891 5.14356 6.88636 5.25769 6.53959C5.56281 5.62608 6.24684 5.15758 7.16906 5.08706C7.96744 5.02616 8.77109 5.04005 9.57263 5.02242C9.73072 5.01922 9.88882 5.02242 10.0469 5.02242L10.0459 5.04219ZM10.0285 13.2499C10.876 13.2556 11.6911 12.9199 12.2947 12.3167C12.8982 11.7135 13.2409 10.892 13.2473 10.0328C13.2578 9.17361 12.9317 8.34525 12.3403 7.72959C11.749 7.11392 10.9409 6.76125 10.0933 6.74901C9.67036 6.74094 9.25005 6.81801 8.85672 6.97577C8.46338 7.13352 8.10483 7.36882 7.80182 7.66803C7.49882 7.96724 7.25739 8.32443 7.09151 8.71889C6.92563 9.11335 6.83861 9.53726 6.83548 9.96606C6.82997 10.3949 6.90846 10.8206 7.06639 11.2184C7.22433 11.6163 7.45858 11.9784 7.75556 12.2839C8.05254 12.5893 8.40636 12.8319 8.79652 12.9978C9.18667 13.1636 9.60541 13.2493 10.0285 13.2499ZM13.2773 7.41197C13.4461 7.40986 13.6072 7.33992 13.7252 7.21752C13.8431 7.09513 13.9084 6.93027 13.9065 6.75916C13.9046 6.5879 13.8359 6.42437 13.7154 6.30427C13.595 6.18416 13.4326 6.11724 13.2636 6.1181C13.1784 6.11807 13.094 6.13535 13.0154 6.16893C12.9369 6.2025 12.8658 6.25169 12.8063 6.31359C12.7468 6.37548 12.7002 6.44883 12.6691 6.5293C12.638 6.60978 12.6232 6.69575 12.6254 6.78213C12.6269 6.86706 12.6449 6.95085 12.6786 7.02864C12.7122 7.10643 12.7608 7.17666 12.8214 7.23527C12.8821 7.29387 12.9536 7.33966 13.0319 7.37C13.1101 7.40034 13.1936 7.4146 13.2773 7.41197Z" fill="#2F383B"/>
<path d="M10.068 7.90356C10.34 7.90634 10.6088 7.96365 10.8588 8.0722C11.1089 8.18075 11.3352 8.33838 11.5249 8.53602C11.7146 8.73366 11.8638 8.9674 11.964 9.22376C12.0641 9.48012 12.1132 9.75404 12.1085 10.0297C12.0837 11.2007 11.152 12.1201 10.0132 12.0972C8.86176 12.0742 7.9485 11.1233 7.97327 9.97258C7.97622 9.69712 8.03281 9.42497 8.13979 9.17174C8.24677 8.91851 8.40204 8.68919 8.59667 8.49695C8.7913 8.30471 9.02147 8.15333 9.27397 8.0515C9.52647 7.94967 9.79631 7.89939 10.068 7.90356Z" fill="#2F383B"/>
</g>
<defs>
<clipPath id="clip0_96_203">
<rect width="19.726" height="20" fill="white" transform="translate(0.178101)"/>
</clipPath>
</defs>
</svg>
