<svg width="20" height="20" viewBox="0 0 20 20" fill="none" xmlns="http://www.w3.org/2000/svg">
<g clip-path="url(#clip0_96_231)">
<path d="M0.273987 10.6264V9.37855C0.288755 9.24878 0.305971 9.12898 0.32074 8.99421C0.542026 6.82285 1.45666 4.78417 2.92551 3.18815C4.39436 1.59213 6.3371 0.526121 8.45829 0.152204C8.81028 0.0923086 9.16718 0.0523541 9.52163 0.00244141H10.7523C10.8016 0.00244141 10.8508 0.0298641 10.9001 0.0348554C12.4168 0.136539 13.8866 0.610143 15.183 1.41495C16.4094 2.1439 17.4637 3.13628 18.2716 4.32234C19.0796 5.50839 19.6216 6.85936 19.8597 8.28044C19.9262 8.6423 19.9606 9.01169 20.0099 9.37855V10.6264C19.9828 10.8759 19.9557 11.1005 19.9237 11.3401C19.6394 13.4393 18.7063 15.3933 17.2584 16.9213C15.8105 18.4494 13.9223 19.473 11.8649 19.8452C11.5006 19.9126 11.1265 19.95 10.7647 19.9999H9.53395C9.2878 19.97 9.04167 19.945 8.81029 19.9101C6.74357 19.6184 4.82089 18.6711 3.31759 17.2039C1.8143 15.7367 0.807502 13.8247 0.441378 11.7419C0.360151 11.3726 0.323216 10.9982 0.273987 10.6264ZM10.137 16.5035C10.2108 16.4212 10.2748 16.3588 10.329 16.2889C11.0674 15.3905 11.8059 14.507 12.5098 13.5862C13.3086 12.5663 13.9892 11.4568 14.5381 10.2794C14.89 9.49831 15.1239 8.69725 14.9861 7.82378C14.6784 5.88217 13.6446 4.49209 11.8256 3.81328C10.0066 3.13447 8.33278 3.48637 6.87314 4.77162C5.59565 5.89715 4.65784 8.09827 5.73349 10.2894C6.20966 11.254 6.7594 12.1794 7.37772 13.0571C8.23097 14.2591 9.15227 15.4098 10.137 16.5035Z" fill="white"/>
<path d="M10.1198 16.4361C9.13446 15.3429 8.21313 14.1921 7.36051 12.9896C6.74219 12.1119 6.19243 11.1865 5.71625 10.222C4.63322 8.0308 5.57841 5.82969 6.8559 4.70416C8.31554 3.41891 9.99917 3.07199 11.8083 3.74581C13.6175 4.41963 14.6611 5.81471 14.9688 7.75631C15.1067 8.62978 14.8728 9.43334 14.5209 10.212C13.972 11.3894 13.2914 12.4989 12.4926 13.5187C11.7911 14.4396 11.0428 15.323 10.3118 16.2215C10.2601 16.2914 10.1961 16.3563 10.1198 16.4361ZM8.39677 8.6098C8.39337 8.98117 8.49873 9.34519 8.69949 9.65582C8.90026 9.96645 9.18742 10.2097 9.52461 10.3548C9.86181 10.4999 10.2339 10.5403 10.5937 10.4709C10.9536 10.4014 11.285 10.2254 11.5461 9.96485C11.8071 9.70434 11.9861 9.37116 12.0603 9.00748C12.1345 8.64379 12.1006 8.26594 11.963 7.92179C11.8253 7.57764 11.59 7.28265 11.2868 7.07415C10.9837 6.86566 10.6264 6.75305 10.2601 6.75056C9.77019 6.7479 9.29921 6.94193 8.95006 7.29033C8.6009 7.63873 8.40197 8.11313 8.39677 8.6098Z" fill="black"/>
<path d="M8.286 8.51038C8.286 7.28502 9.18933 6.29923 10.2896 6.30422C11.3899 6.30921 12.276 7.31996 12.2587 8.56528C12.2415 9.8106 11.3456 10.7689 10.2453 10.7589C9.14504 10.749 8.28108 9.73324 8.286 8.51038Z" fill="white"/>
</g>
<defs>
<clipPath id="clip0_96_231">
<rect width="19.726" height="20" fill="white" transform="translate(0.273987)"/>
</clipPath>
</defs>
</svg>
