<svg width="20" height="21" viewBox="0 0 20 21" fill="none" xmlns="http://www.w3.org/2000/svg">
<g clip-path="url(#clip0_96_216)">
<path d="M10.1278 0.505453C4.63251 0.523384 0.232852 5.01025 0.275484 10.6035C0.317051 16.1515 4.79132 20.5814 10.2771 20.5044C15.6903 20.4285 20.0122 15.969 20.0004 10.4622C19.9887 4.95541 15.5432 0.483303 10.1278 0.505453Z" fill="white"/>
<path d="M10.1278 0.505419C15.5432 0.488543 19.9887 4.96803 20.0004 10.4622C20.0122 15.9563 15.6903 20.4284 10.2771 20.5044C4.79132 20.5814 0.317051 16.1514 0.275484 10.6035C0.232852 5.00494 4.63251 0.518076 10.1278 0.505419ZM13.2688 16.5122C13.3459 16.4922 13.4203 16.4632 13.4905 16.4257C14.385 15.8628 15.1912 15.173 15.8832 14.3784C16.1347 14.0852 16.122 13.9154 15.8161 13.6833C15.0118 13.0618 14.1399 12.5312 13.2166 12.1012C12.9128 11.962 12.8148 11.9905 12.5856 12.2426C12.3351 12.5179 12.0921 12.7995 11.8481 13.0864C11.8207 13.1299 11.7774 13.1614 11.7273 13.1744C11.6771 13.1873 11.6238 13.1807 11.5784 13.156C11.0892 12.926 10.5701 12.7478 10.1172 12.4609C8.86948 11.6813 7.95114 10.479 7.53365 9.07836C7.50869 9.02228 7.50373 8.95947 7.51962 8.90024C7.5355 8.84101 7.57127 8.78888 7.62105 8.75243C7.88537 8.52145 8.15395 8.28836 8.40548 8.04893C8.67939 7.79474 8.70392 7.70297 8.54938 7.35807C8.13112 6.4474 7.61855 5.5821 7.01993 4.77606C6.77799 4.44488 6.60853 4.42589 6.30477 4.69485C5.52171 5.39828 4.84731 6.21173 4.30318 7.10915C4.23672 7.22909 4.21342 7.36781 4.2371 7.50257C4.31033 7.91772 4.41037 8.3278 4.53659 8.73029C5.0322 10.1922 5.87632 11.442 6.88138 12.5822C8.17954 14.0504 9.67167 15.2623 11.4793 16.0354C12.048 16.2821 12.6515 16.4411 13.2688 16.5069V16.5122ZM10.5648 5.32137C13.4063 5.63779 14.9485 7.21358 15.2544 10.0677H16.0463C16.0793 6.83281 13.289 4.41112 10.5691 4.53452L10.5648 5.32137ZM13.9253 10.073C13.9626 7.93607 11.9962 6.51955 10.568 6.69042V7.50046C11.2395 7.51142 11.8794 7.7848 12.3479 8.26093C12.8242 8.74743 13.0945 9.39567 13.1036 10.073H13.9253Z" fill="white"/>
<path d="M13.2683 16.5067C12.6519 16.4371 12.0499 16.2745 11.4831 16.0246C9.67123 15.2515 8.17909 14.0396 6.8852 12.5714C5.87588 11.4312 5.03175 10.1814 4.54042 8.7195C4.41419 8.31702 4.31416 7.90693 4.24093 7.49178C4.21725 7.35702 4.24055 7.2183 4.30701 7.09837C4.85115 6.20095 5.52555 5.3875 6.30861 4.68406C6.61236 4.41511 6.78182 4.43409 7.02376 4.76528C7.62239 5.57132 8.13494 6.43661 8.5532 7.34729C8.70774 7.69219 8.68323 7.78395 8.40931 8.03815C8.15245 8.27757 7.8892 8.51066 7.62488 8.74165C7.5751 8.7781 7.53933 8.83022 7.52345 8.88944C7.50757 8.94867 7.51251 9.0115 7.53748 9.06757C7.95497 10.4682 8.87331 11.6705 10.121 12.4501C10.574 12.737 11.093 12.9153 11.5822 13.1452C11.6276 13.17 11.6809 13.1765 11.7311 13.1636C11.7813 13.1506 11.8245 13.1191 11.8519 13.0756C12.096 12.7929 12.339 12.5113 12.5894 12.2318C12.8186 11.9797 12.9166 11.9512 13.2204 12.0905C14.1437 12.5204 15.0156 13.0511 15.8199 13.6726C16.1258 13.9046 16.1396 14.0744 15.887 14.3676C15.195 15.1623 14.3888 15.852 13.4943 16.4149C13.4231 16.4545 13.3472 16.4854 13.2683 16.5067Z" fill="#2F383B"/>
<path d="M10.5644 5.31576V4.52893C13.2843 4.40552 16.0746 6.8272 16.0416 10.0621H15.2497C14.9481 7.20797 13.4058 5.63113 10.5644 5.31576Z" fill="#2F383B"/>
<path d="M13.9249 10.0674H13.1032C13.0941 9.39012 12.8238 8.74187 12.3475 8.25537C11.8789 7.77924 11.2391 7.50586 10.5676 7.49491V6.68486C11.9958 6.51715 13.9622 7.93052 13.9249 10.0674Z" fill="#2F383B"/>
</g>
<defs>
<clipPath id="clip0_96_216">
<rect width="19.726" height="20" fill="white" transform="translate(0.273987 0.5)"/>
</clipPath>
</defs>
</svg>
