<svg width="21" height="20" viewBox="0 0 21 20" fill="none" xmlns="http://www.w3.org/2000/svg">
<g clip-path="url(#clip0_96_196)">
<path d="M11.1679 19.9996H10.0891C9.80929 19.9678 9.52849 19.9428 9.24963 19.9017C7.86008 19.7129 6.52791 19.219 5.34601 18.4545C5.29299 18.4151 5.23112 18.3898 5.16601 18.3807C5.1009 18.3717 5.03459 18.3792 4.97307 18.4027C3.84651 18.7749 2.71706 19.1363 1.58858 19.5041C1.52683 19.5242 1.46411 19.5427 1.3763 19.5696C1.77047 18.3807 2.14824 17.2293 2.53421 16.0809C2.58632 15.9264 2.58246 15.811 2.48259 15.6706C1.66361 14.4926 1.11575 13.1433 0.879359 11.7221C0.808919 11.3079 0.775146 10.8868 0.724487 10.4691V9.41459C0.736549 9.34514 0.750058 9.27618 0.76019 9.20722C0.823393 8.77046 0.86006 8.32685 0.953176 7.89743C1.47327 5.48131 2.70549 3.50733 4.65368 2.02831C7.04525 0.213282 9.73451 -0.386344 12.6626 0.233337C15.0218 0.732701 16.9406 1.98478 18.4078 3.91816C19.9912 6.0061 20.6503 8.3831 20.4028 10.9997C20.2025 13.1121 19.3959 14.9795 18.0097 16.5754C16.4808 18.3361 14.5731 19.4312 12.2911 19.8421C11.9186 19.9115 11.5423 19.9487 11.1679 19.9996ZM13.7689 15.6354C14.0887 15.5733 14.3691 15.5532 14.6257 15.4642C16.0205 14.9795 16.4938 14.2972 16.5344 12.9913C16.5406 12.7835 16.4629 12.646 16.2782 12.557C15.5492 12.2054 14.825 11.8434 14.0931 11.4972C13.7047 11.3137 13.4833 11.3847 13.229 11.7319C13.036 11.9931 12.8503 12.2567 12.6524 12.5145C12.3581 12.8965 12.141 12.9502 11.6991 12.7678C10.0886 12.1026 8.88296 10.9655 7.97689 9.48111C7.75592 9.11967 7.76702 9.01256 8.04974 8.68878C8.22825 8.48434 8.41448 8.28577 8.58045 8.07204C8.73725 7.87102 8.88296 7.65141 8.77006 7.37654C8.43233 6.549 8.08689 5.72292 7.73324 4.90173C7.68886 4.79902 7.58464 4.67675 7.4867 4.65229C6.96902 4.52171 6.42818 4.49285 5.99589 4.84793C5.03096 5.64173 4.7299 6.70991 4.91517 7.92384C5.04544 8.77388 5.44009 9.51877 5.91677 10.2226C6.68244 11.3543 7.5475 12.3951 8.579 13.2907C9.7263 14.2874 11.0584 14.9203 12.4932 15.3478C12.9217 15.4749 13.3655 15.5459 13.7689 15.6354Z" fill="white"/>
<path d="M13.769 15.6355C13.3657 15.546 12.9218 15.4751 12.4943 15.3475C11.0595 14.92 9.72739 14.2871 8.58009 13.2903C7.54858 12.3948 6.68353 11.3525 5.92027 10.2223C5.44359 9.51845 5.04894 8.77356 4.91867 7.92352C4.73341 6.70959 5.03639 5.64141 5.99939 4.84761C6.43361 4.49106 6.97252 4.51991 7.49021 4.65197C7.5867 4.67642 7.69236 4.7987 7.73674 4.90141C8.09039 5.72259 8.43342 6.54867 8.77356 7.37622C8.88646 7.65109 8.74075 7.87069 8.58395 8.07171C8.41702 8.28545 8.23079 8.48402 8.05324 8.68846C7.77052 9.01224 7.75942 9.11935 7.98039 9.48079C8.88646 10.9652 10.0921 12.1023 11.7026 12.7675C12.1445 12.9499 12.3616 12.8961 12.6559 12.5141C12.8538 12.2583 13.0419 11.9947 13.2325 11.7316C13.4868 11.3843 13.7082 11.3134 14.0966 11.4968C14.8285 11.8431 15.5527 12.205 16.2817 12.5567C16.4665 12.6457 16.5441 12.7831 16.5379 12.991C16.4973 14.2969 16.024 14.9792 14.6292 15.4639C14.3692 15.5534 14.0889 15.5734 13.769 15.6355Z" fill="#2F383B"/>
</g>
<defs>
<clipPath id="clip0_96_196">
<rect width="19.726" height="20" fill="white" transform="translate(0.726074)"/>
</clipPath>
</defs>
</svg>
