<svg width="106" height="70" viewBox="0 0 106 70" fill="none" xmlns="http://www.w3.org/2000/svg">
<path opacity="0.4" d="M49.788 29.1691C49.788 34.7542 48.7091 39.7363 46.5512 44.1155C44.4568 48.4313 41.5373 51.8267 37.7928 54.3019C34.1117 56.7771 29.9229 58.0147 25.2264 58.0147C20.5299 58.0147 16.3093 56.7771 12.5648 54.3019C8.88373 51.8267 5.96427 48.4313 3.8064 44.1155C1.712 39.7363 0.6648 34.7542 0.6648 29.1691C0.6648 23.5841 1.712 18.6337 3.8064 14.3179C5.96427 9.93874 8.88373 6.51154 12.5648 4.03634C16.3093 1.49768 20.5299 0.228346 25.2264 0.228346C29.9229 0.228346 34.1117 1.49768 37.7928 4.03634C41.5373 6.51154 44.4568 9.93874 46.5512 14.3179C48.7091 18.6337 49.788 23.5841 49.788 29.1691ZM36.936 29.1691C36.936 25.7419 36.4283 22.759 35.4128 20.2203C34.4608 17.6182 33.0963 15.5873 31.3192 14.1275C29.5421 12.6678 27.5112 11.9379 25.2264 11.9379C22.8781 11.9379 20.8155 12.6678 19.0384 14.1275C17.2613 15.5873 15.8651 17.6182 14.8496 20.2203C13.8976 22.759 13.4216 25.7419 13.4216 29.1691C13.4216 32.5963 13.8976 35.5793 14.8496 38.1179C15.8651 40.6566 17.2613 42.6558 19.0384 44.1155C20.8155 45.5753 22.8781 46.3051 25.2264 46.3051C27.5112 46.3051 29.5104 45.5753 31.224 44.1155C33.0011 42.6558 34.3973 40.6566 35.4128 38.1179C36.4283 35.5158 36.936 32.5329 36.936 29.1691ZM84.6797 69.1531V54.9683H56.8813V43.6395L88.7733 2.70354H97.4365V43.5443H105.814V54.9683H97.4365V69.1531H84.6797ZM69.6381 43.5443H86.1077V22.0291L69.6381 43.5443Z" fill="black" fill-opacity="0.3"/>
</svg>
