<svg width="105" height="72" viewBox="0 0 105 72" fill="none" xmlns="http://www.w3.org/2000/svg">
<path opacity="0.4" d="M49.788 29.1691C49.788 34.7542 48.7091 39.7363 46.5512 44.1155C44.4568 48.4313 41.5373 51.8267 37.7928 54.3019C34.1117 56.7771 29.9229 58.0147 25.2264 58.0147C20.5299 58.0147 16.3093 56.7771 12.5648 54.3019C8.88373 51.8267 5.96427 48.4313 3.8064 44.1155C1.712 39.7363 0.6648 34.7542 0.6648 29.1691C0.6648 23.5841 1.712 18.6337 3.8064 14.3179C5.96427 9.93874 8.88373 6.51154 12.5648 4.03634C16.3093 1.49768 20.5299 0.228346 25.2264 0.228346C29.9229 0.228346 34.1117 1.49768 37.7928 4.03634C41.5373 6.51154 44.4568 9.93874 46.5512 14.3179C48.7091 18.6337 49.788 23.5841 49.788 29.1691ZM36.936 29.1691C36.936 25.7419 36.4283 22.759 35.4128 20.2203C34.4608 17.6182 33.0963 15.5873 31.3192 14.1275C29.5421 12.6678 27.5112 11.9379 25.2264 11.9379C22.8781 11.9379 20.8155 12.6678 19.0384 14.1275C17.2613 15.5873 15.8651 17.6182 14.8496 20.2203C13.8976 22.759 13.4216 25.7419 13.4216 29.1691C13.4216 32.5963 13.8976 35.5793 14.8496 38.1179C15.8651 40.6566 17.2613 42.6558 19.0384 44.1155C20.8155 45.5753 22.8781 46.3051 25.2264 46.3051C27.5112 46.3051 29.5104 45.5753 31.224 44.1155C33.0011 42.6558 34.3973 40.6566 35.4128 38.1179C36.4283 35.5158 36.936 32.5329 36.936 29.1691ZM91.1985 34.5955C93.8641 35.0398 96.1807 36.0553 98.1481 37.6419C100.116 39.1651 101.639 41.1326 102.718 43.5443C103.86 45.9561 104.431 48.6217 104.431 51.5411C104.431 55.4761 103.416 58.9033 101.385 61.8227C99.354 64.7422 96.4663 66.9953 92.7217 68.5819C89.0407 70.2321 84.6932 71.0571 79.6793 71.0571C74.8559 71.0571 70.5719 70.2638 66.8273 68.6771C63.1463 67.1539 60.0681 64.9009 57.5929 61.9179L64.8281 52.8739C66.4783 54.9049 68.4457 56.4915 70.7305 57.6339C73.0788 58.8398 75.9348 59.4427 79.2985 59.4427C83.17 59.4427 86.1212 58.6494 88.1521 57.0627C90.1831 55.5395 91.1985 53.223 91.1985 50.1131C91.1985 46.8129 90.0244 44.2742 87.6761 42.4971C85.3279 40.7201 81.7737 39.8315 77.0137 39.8315H74.3481V30.3115H77.2993C81.1708 30.3115 84.1855 29.423 86.3433 27.6459C88.5647 25.8689 89.6753 23.6475 89.6753 20.9819C89.6753 19.2683 89.2628 17.8403 88.4377 16.6979C87.6127 15.5555 86.4703 14.6987 85.0105 14.1275C83.6143 13.5563 81.9641 13.2707 80.0601 13.2707C77.2041 13.2707 74.602 13.9371 72.2537 15.2699C69.9055 16.6027 68.0015 18.475 66.5417 20.8867L58.5449 11.9379C59.8777 9.97048 61.6865 8.28861 63.9713 6.89234C66.3196 5.43261 68.9852 4.29021 71.9681 3.46514C75.0145 2.64008 78.1879 2.22754 81.4881 2.22754C85.8039 2.22754 89.5801 2.92568 92.8169 4.32194C96.1172 5.71821 98.6876 7.68568 100.528 10.2243C102.369 12.763 103.289 15.7142 103.289 19.0779C103.289 21.5531 102.781 23.9014 101.766 26.1227C100.75 28.3441 99.3223 30.2163 97.4817 31.7395C95.7047 33.1993 93.6103 34.1513 91.1985 34.5955Z" fill="black" fill-opacity="0.29"/>
</svg>
