<svg width="105" height="59" viewBox="0 0 105 59" fill="none" xmlns="http://www.w3.org/2000/svg">
<path opacity="0.4" d="M49.788 29.1691C49.788 34.7542 48.7091 39.7363 46.5512 44.1155C44.4568 48.4313 41.5373 51.8267 37.7928 54.3019C34.1117 56.7771 29.9229 58.0147 25.2264 58.0147C20.5299 58.0147 16.3093 56.7771 12.5648 54.3019C8.88373 51.8267 5.96427 48.4313 3.8064 44.1155C1.712 39.7363 0.6648 34.7542 0.6648 29.1691C0.6648 23.5841 1.712 18.6337 3.8064 14.3179C5.96427 9.93874 8.88373 6.51154 12.5648 4.03634C16.3093 1.49768 20.5299 0.228346 25.2264 0.228346C29.9229 0.228346 34.1117 1.49768 37.7928 4.03634C41.5373 6.51154 44.4568 9.93874 46.5512 14.3179C48.7091 18.6337 49.788 23.5841 49.788 29.1691ZM36.936 29.1691C36.936 25.7419 36.4283 22.759 35.4128 20.2203C34.4608 17.6182 33.0963 15.5873 31.3192 14.1275C29.5421 12.6678 27.5112 11.9379 25.2264 11.9379C22.8781 11.9379 20.8155 12.6678 19.0384 14.1275C17.2613 15.5873 15.8651 17.6182 14.8496 20.2203C13.8976 22.759 13.4216 25.7419 13.4216 29.1691C13.4216 32.5963 13.8976 35.5793 14.8496 38.1179C15.8651 40.6566 17.2613 42.6558 19.0384 44.1155C20.8155 45.5753 22.8781 46.3051 25.2264 46.3051C27.5112 46.3051 29.5104 45.5753 31.224 44.1155C33.0011 42.6558 34.3973 40.6566 35.4128 38.1179C36.4283 35.5158 36.936 32.5329 36.936 29.1691ZM58.5449 57.0627C58.5449 54.2067 58.7671 51.6363 59.2113 49.3515C59.6556 47.0667 60.4172 44.9406 61.4961 42.9731C62.6385 41.0057 64.1617 39.1651 66.0657 37.4515C68.0332 35.6745 70.5084 33.9609 73.4913 32.3107C76.0935 30.9145 78.3783 29.7086 80.3457 28.6931C82.3132 27.6142 83.9633 26.6305 85.2961 25.7419C86.6924 24.8534 87.7396 23.9649 88.4377 23.0763C89.1359 22.1243 89.4849 21.0454 89.4849 19.8395C89.4849 18.5702 89.1359 17.4278 88.4377 16.4123C87.7396 15.3334 86.7559 14.4766 85.4865 13.8419C84.2172 13.2073 82.6305 12.8899 80.7265 12.8899C79.2033 12.8899 77.7753 13.0803 76.4425 13.4611C75.1732 13.8419 73.9673 14.3814 72.8249 15.0795C71.746 15.7777 70.7305 16.571 69.7785 17.4595C68.8265 18.2846 67.9697 19.1731 67.2081 20.1251L59.1161 10.7955C60.0047 9.90701 61.1788 8.95501 62.6385 7.93954C64.1617 6.86061 65.9388 5.87687 67.9697 4.98834C70.0641 4.03634 72.3489 3.27474 74.8241 2.70354C77.3628 2.06888 80.0601 1.75154 82.9161 1.75154C87.2319 1.75154 90.9129 2.44968 93.9593 3.84594C97.0057 5.17874 99.3223 7.05101 100.909 9.46275C102.559 11.8745 103.384 14.6987 103.384 17.9355C103.384 20.1569 102.972 22.1243 102.147 23.8379C101.321 25.5515 100.274 27.0747 99.0049 28.4075C97.7356 29.6769 96.3393 30.8193 94.8161 31.8347C93.3564 32.8502 91.9284 33.7387 90.5321 34.5003C88.5647 35.5158 86.7876 36.4678 85.2009 37.3563C83.6143 38.1814 82.218 39.0382 81.0121 39.9267C79.8063 40.7518 78.7273 41.6086 77.7753 42.4971C76.8868 43.3857 76.0935 44.4011 75.3953 45.5435H104.431V57.0627H58.5449Z" fill="black" fill-opacity="0.3"/>
</svg>
